<svg width="48" height="42" viewBox="0 0 48 42" fill="none" xmlns="http://www.w3.org/2000/svg">
<path d="M5.33333 5.25C2.39167 5.25 0 7.6043 0 10.5V15.75C0 16.4719 0.616667 17.0379 1.30833 17.2758C2.875 17.809 4 19.2773 4 21C4 22.7227 2.875 24.191 1.30833 24.7242C0.616667 24.9621 0 25.5281 0 26.25V31.5C0 34.3957 2.39167 36.75 5.33333 36.75H42.6667C45.6083 36.75 48 34.3957 48 31.5V26.25C48 25.5281 47.3833 24.9621 46.6917 24.7242C45.125 24.191 44 22.7227 44 21C44 19.2773 45.125 17.809 46.6917 17.2758C47.3833 17.0379 48 16.4719 48 15.75V10.5C48 7.6043 45.6083 5.25 42.6667 5.25H5.33333ZM10.6667 14.4375V27.5625C10.6667 28.2844 11.2667 28.875 12 28.875H36C36.7333 28.875 37.3333 28.2844 37.3333 27.5625V14.4375C37.3333 13.7156 36.7333 13.125 36 13.125H12C11.2667 13.125 10.6667 13.7156 10.6667 14.4375ZM8 13.125C8 11.673 9.19167 10.5 10.6667 10.5H37.3333C38.8083 10.5 40 11.673 40 13.125V28.875C40 30.327 38.8083 31.5 37.3333 31.5H10.6667C9.19167 31.5 8 30.327 8 28.875V13.125Z" fill="#CC4141"/>
</svg>
