<svg width="251" height="33" viewBox="0 0 251 33" fill="none" xmlns="http://www.w3.org/2000/svg">
<path d="M75.2909 22.1621H78.4487C78.4487 24.1357 79.9861 24.9044 81.7313 24.9044C82.874 24.9044 84.6191 24.572 84.6191 23.0554C84.6191 21.4349 82.3753 21.2064 80.2147 20.6039C78.0125 20.0637 75.7895 19.1288 75.7895 16.3864C75.7895 13.3324 78.6565 11.8989 81.3366 11.8989C84.4321 11.8989 87.2784 13.2493 87.2784 16.6773H84.1205C84.0166 14.9114 82.7701 14.4335 81.1911 14.4335C80.1524 14.4335 78.9474 14.8698 78.9474 16.1163C78.9474 17.259 79.6537 17.4252 83.3726 18.3601C84.4737 18.6094 87.777 19.3366 87.777 22.6814C87.777 25.403 85.6579 27.4391 81.6066 27.4391C78.3241 27.4391 75.2285 25.8186 75.2909 22.1621Z" fill="#CC4141"/>
<path d="M88.7828 22.1621H91.9407C91.9407 24.1357 93.4781 24.9044 95.2233 24.9044C96.3659 24.9044 98.1111 24.572 98.1111 23.0554C98.1111 21.4349 95.8673 21.2064 93.7067 20.6039C91.5044 20.0637 89.2815 19.1288 89.2815 16.3864C89.2815 13.3324 92.1485 11.8989 94.8285 11.8989C97.9241 11.8989 100.77 13.2493 100.77 16.6773H97.6125C97.5086 14.9114 96.2621 14.4335 94.6831 14.4335C93.6443 14.4335 92.4393 14.8698 92.4393 16.1163C92.4393 17.259 93.1457 17.4252 96.8646 18.3601C97.9657 18.6094 101.269 19.3366 101.269 22.6814C101.269 25.403 99.1499 27.4391 95.0986 27.4391C91.8161 27.4391 88.7205 25.8186 88.7828 22.1621Z" fill="#CC4141"/>
<path d="M121.326 12.2521L117.337 27.0859H114.096L111.582 16.9889H111.541L109.068 27.0859H105.765L101.839 12.2521H105.1L107.448 22.349H107.49L110.066 12.2521H113.12L115.654 22.4737H115.696L118.127 12.2521H121.326Z" fill="#CC4141"/>
<path d="M122.891 27.0859V12.2521H132.303V13.4571H124.304V18.8172H131.409V20.0222H124.304V27.0859H122.891Z" fill="white"/>
<path d="M133.821 14.3504V12.2521H135.13V14.3504H133.821ZM133.821 27.0859V16.3657H135.13V27.0859H133.821Z" fill="white"/>
<path d="M137.635 27.0859V16.3657H138.84V18.8795H138.882C139.547 17.1343 141.001 16.1371 142.933 16.2202V17.5291C140.565 17.4252 138.944 19.1288 138.944 21.3726V27.0859H137.635Z" fill="white"/>
<path d="M144.592 20.9778H151.531C151.469 19.0042 150.222 17.1551 148.124 17.1551C145.963 17.1551 144.821 19.0249 144.592 20.9778ZM152.84 22.0789H144.592C144.592 23.9903 145.631 26.2964 148.124 26.2964C150.035 26.2964 151.074 25.1953 151.49 23.554H152.798C152.237 25.9848 150.845 27.3975 148.124 27.3975C144.717 27.3975 143.283 24.7798 143.283 21.7258C143.283 18.9003 144.717 16.054 148.124 16.054C151.552 16.054 152.944 19.0665 152.84 22.0789Z" fill="white"/>
<path d="M156.259 13.4571V18.7548H161.12C163.364 18.7548 164.465 17.633 164.465 16.241C164.465 14.392 163.343 13.4571 161.12 13.4571H156.259ZM154.846 27.0859V12.2521H161.12C163.613 12.2521 165.878 13.1247 165.878 15.8878C165.878 17.446 164.839 18.8795 163.302 19.2119V19.2535C165.213 19.5028 166.439 20.9363 166.439 22.8684C166.439 24.2812 165.94 27.0859 161.12 27.0859H154.846ZM156.259 19.9598V25.8809H161.12C163.218 25.8809 165.026 25.2368 165.026 22.8269C165.026 20.9155 163.613 19.9598 161.12 19.9598H156.259Z" fill="white"/>
<path d="M172.983 17.1551C170.49 17.1551 169.222 19.4612 169.222 21.7258C169.222 23.9903 170.49 26.2964 172.983 26.2964C175.476 26.2964 176.743 23.9903 176.743 21.7258C176.743 19.4612 175.476 17.1551 172.983 17.1551ZM172.983 16.054C176.245 16.054 178.052 18.651 178.052 21.7258C178.052 24.8006 176.245 27.3975 172.983 27.3975C169.721 27.3975 167.914 24.8006 167.914 21.7258C167.914 18.651 169.721 16.054 172.983 16.054Z" fill="white"/>
<path d="M184.527 17.1551C182.034 17.1551 180.767 19.4612 180.767 21.7258C180.767 23.9903 182.034 26.2964 184.527 26.2964C187.02 26.2964 188.288 23.9903 188.288 21.7258C188.288 19.4612 187.02 17.1551 184.527 17.1551ZM184.527 16.054C187.789 16.054 189.596 18.651 189.596 21.7258C189.596 24.8006 187.789 27.3975 184.527 27.3975C181.265 27.3975 179.458 24.8006 179.458 21.7258C179.458 18.651 181.265 16.054 184.527 16.054Z" fill="white"/>
<path d="M193.62 13.1454V16.3657H195.801V17.4668H193.62V24.6967C193.62 25.5485 193.745 26.0471 194.679 26.1094C195.053 26.1094 195.427 26.0886 195.801 26.0471V27.169C195.407 27.169 195.033 27.2105 194.638 27.2105C192.893 27.2105 192.29 26.6288 192.311 24.8006V17.4668H190.441V16.3657H192.311V13.1454H193.62Z" fill="white"/>
<path d="M210.197 16.7396H208.784C208.285 14.4543 206.395 13.1454 204.234 13.1454C200.308 13.1454 198.645 16.428 198.645 19.669C198.645 22.91 200.308 26.1925 204.234 26.1925C206.976 26.1925 208.722 24.0734 208.992 21.4349H210.404C210.01 25.0914 207.704 27.3975 204.234 27.3975C199.56 27.3975 197.233 23.741 197.233 19.669C197.233 15.597 199.56 11.9404 204.234 11.9404C207.06 11.9404 209.802 13.644 210.197 16.7396Z" fill="white"/>
<path d="M213.502 19.6482H212.193C212.339 17.1344 214.063 16.054 216.535 16.054C218.426 16.054 220.483 16.615 220.483 19.5028V25.1953C220.483 25.7147 220.732 25.9848 221.251 25.9848C221.397 25.9848 221.522 25.964 221.667 25.9017V27.0028C221.355 27.0651 221.168 27.0859 220.815 27.0859C219.486 27.0859 219.278 26.3172 219.278 25.2161H219.236C218.301 26.608 217.408 27.3975 215.33 27.3975C213.336 27.3975 211.736 26.4211 211.736 24.2604C211.736 21.2687 214.666 21.144 217.491 20.8116C218.571 20.7078 219.174 20.5208 219.174 19.3573C219.174 17.5914 217.927 17.1551 216.369 17.1551C214.728 17.1551 213.564 17.903 213.502 19.6482ZM219.174 22.9307V21.2271H219.132C218.966 21.5388 218.384 21.6427 218.031 21.705C215.808 22.0997 213.045 22.0997 213.045 24.1773C213.045 25.4862 214.188 26.2964 215.434 26.2964C217.45 26.2964 219.174 25.0291 219.174 22.9307Z" fill="white"/>
<path d="M223.091 27.0859V16.3657H224.296V18.1731H224.359C225.044 16.8643 226.145 16.054 227.87 16.054C229.282 16.054 230.55 16.7396 230.944 18.1524C231.588 16.7396 232.939 16.054 234.352 16.054C236.72 16.054 237.904 17.3006 237.904 19.8144V27.0859H236.595V19.8767C236.595 18.1108 235.951 17.1551 234.061 17.1551C231.796 17.1551 231.152 19.0249 231.152 21.0194V27.0859H229.843V19.8144C229.843 18.3601 229.282 17.1551 227.6 17.1551C225.356 17.1551 224.4 18.8587 224.4 21.1025V27.0859H223.091Z" fill="white"/>
<path d="M240.397 31.054V16.3657H241.602V18.4017H241.644C242.247 16.9266 243.722 16.054 245.467 16.054C248.729 16.054 250.287 18.6717 250.287 21.7258C250.287 24.7798 248.729 27.3975 245.467 27.3975C243.888 27.3975 242.309 26.608 241.748 25.0499H241.706V31.054H240.397ZM248.978 21.7258C248.978 19.5028 247.96 17.1551 245.467 17.1551C242.558 17.1551 241.706 19.295 241.706 21.7258C241.706 23.9488 242.704 26.2964 245.467 26.2964C247.96 26.2964 248.978 23.9488 248.978 21.7258Z" fill="white"/>
<path d="M13.9889 26.8006L0 20.3601V18.9058L13.9889 12.4654V13.9889L1.7313 19.6676L13.9889 25.3463V26.8006Z" fill="white"/>
<path d="M67.036 19.6676L54.7091 13.9889V12.4654L68.6981 18.9058V20.4294L54.7091 26.8698V25.3463L67.036 19.6676Z" fill="white"/>
<path fill-rule="evenodd" clip-rule="evenodd" d="M33.4901 32.5485C33.4676 32.5287 33.4406 32.5338 33.4157 32.5338C33.1474 32.527 32.8808 32.5038 32.6135 32.4799C32.3582 32.456 32.1042 32.4246 31.8512 32.385C31.4598 32.3239 31.0732 32.2437 30.6897 32.1437C29.9144 31.9424 29.1701 31.6619 28.4644 31.282C27.5599 30.7954 26.7645 30.1709 26.0922 29.3914C25.6081 28.83 25.2109 28.2113 24.8908 27.5424C24.5775 26.8858 24.3855 26.1982 24.345 25.4685C24.3242 25.0853 24.345 24.7051 24.3937 24.3253C24.4339 24.0045 24.498 23.6875 24.572 23.3728C24.6716 22.9469 24.7888 22.5265 24.9054 22.105C25.034 21.6388 25.1615 21.1726 25.2679 20.7007C25.305 20.5382 25.3241 20.3731 25.3214 20.2069C25.3176 19.9089 25.2522 19.6229 25.1465 19.3462C25.035 19.0534 24.8833 18.7814 24.7125 18.5203C24.5083 18.2098 24.2788 17.9204 24.0388 17.6381C23.8861 17.4579 23.7296 17.2818 23.5751 17.1027C23.5632 17.0894 23.5441 17.0785 23.5458 17.0563C23.5516 17.0552 23.555 17.0532 23.5574 17.0535C23.585 17.0614 23.6133 17.0699 23.6406 17.0788C24.3136 17.318 24.9293 17.6593 25.482 18.1125C25.7223 18.3091 25.9408 18.5258 26.1389 18.765C26.6892 19.4322 27.0011 20.1983 27.07 21.0607C27.1075 21.5313 27.0714 21.9982 26.978 22.4606C26.9459 22.6203 26.9036 22.7783 26.8668 22.937C26.8617 22.9575 26.8487 22.9783 26.8634 23.0066C26.8808 22.9923 26.8944 22.9834 26.9064 22.9708C26.9878 22.8797 27.0744 22.793 27.1501 22.6971C27.6077 22.1139 27.8524 21.4474 27.9142 20.7106C27.9486 20.3021 27.9182 19.8956 27.8395 19.4933C27.7566 19.068 27.6233 18.6599 27.4529 18.2623C27.2456 17.7815 26.9916 17.3266 26.7028 16.8914C26.6179 16.7648 26.5409 16.6348 26.4703 16.501C26.2439 16.0727 26.0544 15.6281 25.904 15.167C25.7227 14.6107 25.6009 14.0429 25.5679 13.4569C25.5467 13.0645 25.5682 12.6764 25.6436 12.2911C25.7452 11.7663 25.9443 11.2817 26.246 10.8401C26.5661 10.3719 26.9728 9.99202 27.4392 9.67464C27.4443 9.66952 27.4542 9.67055 27.4621 9.66918C27.4628 9.67464 27.4645 9.67669 27.4631 9.67874C27.4512 9.7057 27.4375 9.73163 27.4259 9.75825C27.2146 10.1985 27.0857 10.6616 27.0356 11.1472C27.0042 11.4506 27.0056 11.7526 27.0434 12.0546C27.0935 12.4628 27.2064 12.8532 27.3785 13.2266C27.6182 13.749 27.9523 14.205 28.3526 14.6148C28.7024 14.9732 29.0897 15.283 29.5025 15.5649C30.0566 15.9444 30.5284 16.4082 30.915 16.9566C31.1636 17.3098 31.3565 17.69 31.4687 18.1087C31.4731 18.1272 31.4813 18.1446 31.4871 18.1623C31.5058 18.0978 31.5123 18.035 31.5253 17.9719C31.5601 17.8125 31.5938 17.6535 31.631 17.4951C31.7053 17.1737 31.7817 16.8539 31.8066 16.5236C31.8168 16.3888 31.8137 16.2553 31.7909 16.1229C31.7452 15.8553 31.6845 15.5915 31.6132 15.3301C31.4476 14.7203 31.2137 14.1364 30.9331 13.5726C30.7602 13.2255 30.5782 12.8832 30.3992 12.5396C30.2096 12.1755 30.0245 11.8093 29.8663 11.4288C29.5963 10.7807 29.4306 10.1077 29.3897 9.40572C29.3669 9.00234 29.3883 8.60101 29.4592 8.20343C29.5564 7.65706 29.7368 7.13902 30 6.64998C30.3344 6.03024 30.7725 5.49343 31.2952 5.02384C32.0551 4.33823 32.9275 3.83896 33.877 3.468C33.8872 3.46425 33.8992 3.45605 33.9114 3.47244C33.9012 3.49359 33.8893 3.51714 33.8777 3.53967C33.7969 3.70143 33.712 3.8608 33.6363 4.02495C33.3721 4.60476 33.2006 5.21086 33.1433 5.8463C33.1109 6.1961 33.1184 6.54555 33.1611 6.89399C33.1999 7.21615 33.2671 7.53114 33.3605 7.84203C33.5027 8.31844 33.698 8.77233 33.9275 9.21222C34.1897 9.71423 34.4938 10.191 34.818 10.6544C35.1572 11.1397 35.5193 11.6079 35.882 12.0741C36.2427 12.5369 36.6334 12.973 37.0531 13.3829C37.257 13.5832 37.4595 13.7842 37.6624 13.9849C38.276 14.5903 38.767 15.2851 39.1533 16.054C39.5944 16.932 39.8426 17.8644 39.9064 18.8452C39.9316 19.2452 39.9203 19.6434 39.8695 20.0407C39.8245 20.4027 39.7383 20.7563 39.621 21.102C39.6152 21.1184 39.6067 21.1337 39.5989 21.1491C39.6009 21.1511 39.6026 21.1518 39.6026 21.1539L39.6016 21.1593C39.6009 21.1556 39.6009 21.1518 39.6009 21.1484C39.6104 21.1392 39.6258 21.1337 39.6316 21.1225C39.649 21.0887 39.6636 21.0539 39.6797 21.0187C39.8825 20.544 40.0492 20.0567 40.1849 19.5588C40.3145 19.0834 40.4123 18.6015 40.4781 18.1125C40.5166 17.8292 40.5415 17.5453 40.5579 17.26C40.5818 16.8228 40.5787 16.3864 40.548 15.9495C40.5248 15.6298 40.4866 15.3117 40.4331 14.995C40.3424 14.4599 40.2108 13.935 40.0373 13.4211C39.7417 12.5471 39.336 11.726 38.8345 10.9534C38.7257 10.7848 38.6081 10.6206 38.4949 10.4541C38.4871 10.4422 38.4676 10.4302 38.4837 10.407C38.5011 10.4176 38.5178 10.4278 38.5341 10.4394C38.6473 10.5271 38.7598 10.6128 38.871 10.7025C39.7093 11.3817 40.472 12.1365 41.163 12.9648C41.7709 13.6938 42.3096 14.4712 42.7589 15.3083C43.1302 15.998 43.4323 16.7164 43.6501 17.4692C43.7937 17.962 43.8976 18.464 43.96 18.9742C43.9911 19.2319 44.0136 19.4892 44.0221 19.7489C44.0401 20.2775 44.0156 20.8034 43.943 21.3272C43.8898 21.703 43.8158 22.0739 43.7197 22.4405C43.5175 23.2107 43.226 23.9448 42.8629 24.6519C42.7109 24.9478 42.5459 25.2358 42.3733 25.5197C42.357 25.5457 42.3314 25.5692 42.3341 25.6047C42.3283 25.6088 42.3229 25.6129 42.3174 25.6166C42.3208 25.619 42.3249 25.6211 42.3277 25.6238C42.329 25.6166 42.3307 25.6098 42.3314 25.603C42.3703 25.6023 42.3822 25.5678 42.4027 25.5453C42.7139 25.1986 43.0064 24.8351 43.2843 24.4611C43.8629 23.6834 44.3756 22.8657 44.8096 21.9982C45.1598 21.2952 45.4519 20.57 45.6606 19.8124C45.6654 19.7949 45.6626 19.7714 45.6858 19.7612C45.6926 19.7673 45.6998 19.7728 45.7063 19.7786V21.1784C45.6858 21.2064 45.6892 21.2392 45.6892 21.2709C45.6865 21.5071 45.6572 21.7415 45.6292 21.9763C45.591 22.3002 45.5406 22.6224 45.4806 22.9431C45.3725 23.5274 45.2344 24.1062 45.065 24.6758C44.8659 25.3399 44.6286 25.991 44.3644 26.6329C44.1704 27.1049 43.9515 27.5646 43.6951 28.0059C43.3723 28.5638 42.9894 29.0757 42.5349 29.5323C42.1511 29.9183 41.728 30.2562 41.2728 30.5527C40.5265 31.0397 39.7298 31.4308 38.8965 31.7455C38.349 31.9526 37.7848 32.1079 37.2123 32.2297C36.9048 32.2946 36.5953 32.3519 36.2847 32.3922C36.0849 32.4181 35.8854 32.443 35.686 32.4638C35.5005 32.4836 35.3147 32.4983 35.1293 32.5116C34.9809 32.5219 34.8326 32.527 34.6854 32.5338C34.6584 32.5358 34.6332 32.5444 34.6083 32.5485H33.4901Z" fill="#CC4141"/>
<path fill-rule="evenodd" clip-rule="evenodd" d="M39.1037 4.86731C39.3204 5.11052 39.5318 5.35962 39.7124 5.63888C39.8684 5.88176 39.9963 6.14135 40.0739 6.42847C40.1219 6.6035 40.1494 6.78214 40.1583 6.9647C40.1651 7.10466 40.1695 7.24396 40.1627 7.38458C40.1494 7.68711 40.0709 7.96735 39.9398 8.2312C39.8678 8.37608 39.7852 8.51374 39.6949 8.6455C39.6227 8.75006 39.5472 8.85167 39.4732 8.95459C39.4617 8.96967 39.4513 8.98474 39.438 9.00277C39.4181 8.98769 39.401 8.97983 39.39 8.96606C39.364 8.93656 39.3379 8.90542 39.3157 8.87134C39.1055 8.54193 38.9412 8.18695 38.8349 7.80117C38.7807 7.60615 38.7704 7.40588 38.7908 7.20299C38.8124 6.98175 38.8657 6.76935 38.924 6.55762C38.98 6.35407 39.0398 6.15184 39.0904 5.94698C39.1363 5.76868 39.1612 5.58611 39.1618 5.40026C39.1618 5.23015 39.1381 5.06594 39.088 4.90566C39.083 4.8896 39.0786 4.87387 39.0747 4.85781C39.0747 4.85551 39.078 4.85322 39.0809 4.84765C39.0886 4.8542 39.0969 4.85977 39.1037 4.86731Z" fill="white"/>
<path fill-rule="evenodd" clip-rule="evenodd" d="M37.6628 0C37.6542 0.0325224 37.651 0.0466154 37.6465 0.0607084C37.5312 0.437245 37.4999 0.825345 37.5293 1.21995C37.5511 1.5 37.5994 1.77608 37.6666 2.0471C37.7403 2.35028 37.819 2.65202 37.8952 2.95484C37.9547 3.18864 38.0056 3.42533 38.0437 3.66599C38.085 3.93737 38.0988 4.21092 38.0808 4.48664C38.0652 4.72767 38.0127 4.9611 37.9435 5.18912C37.7988 5.67298 37.6074 6.13372 37.3734 6.5706C37.3251 6.66022 37.2694 6.74514 37.215 6.82933C37.1942 6.86149 37.167 6.88823 37.1398 6.91461C37.1247 6.93124 37.1042 6.92726 37.0886 6.90992C37.0818 6.90088 37.0748 6.8904 37.0681 6.88101C36.8619 6.58108 36.6657 6.27284 36.4941 5.94581C36.3411 5.65275 36.2128 5.34631 36.1296 5.01856C36.0649 4.76452 36.0294 4.50651 36.0175 4.24344C36.0025 3.93123 36.0146 3.61974 36.0415 3.30969C36.0876 2.78753 36.2259 2.29608 36.4394 1.83065C36.6052 1.47037 36.8075 1.1372 37.0293 0.819202C37.215 0.551435 37.4131 0.296676 37.6161 0.0458927C37.6257 0.0336064 37.6385 0.023127 37.6628 0Z" fill="white"/>
</svg>
